<svg xmlns="http://www.w3.org/2000/svg" xmlns:xlink="http://www.w3.org/1999/xlink" width="500" zoomAndPan="magnify" viewBox="0 0 375 374.999991" height="500" preserveAspectRatio="xMidYMid meet" version="1.0"><defs><g/><clipPath id="e9990c0392"><path d="M 119.488281 115 L 192 115 L 192 246 L 119.488281 246 Z M 119.488281 115 " clip-rule="nonzero"/></clipPath><clipPath id="49467e68b8"><path d="M 187 115 L 255.238281 115 L 255.238281 246 L 187 246 Z M 187 115 " clip-rule="nonzero"/></clipPath><clipPath id="b7fadf1e5c"><path d="M 179 74.402344 L 195 74.402344 L 195 90 L 179 90 Z M 179 74.402344 " clip-rule="nonzero"/></clipPath></defs><g clip-path="url(#e9990c0392)"><path fill="#392c97" d="M 187.457031 198.113281 C 193.167969 180.929688 191.699219 160.699219 188.835938 130.515625 L 187.457031 115.800781 L 183.949219 126.625 L 171.402344 165.335938 L 119.488281 165.707031 C 135.804688 171.699219 159.226562 186.742188 161.269531 196.523438 L 161.28125 196.566406 C 162.171875 202.59375 159.453125 214.394531 153.394531 228.847656 C 151.160156 234.152344 148.453125 239.894531 145.257812 246 L 159.722656 235.640625 C 175.835938 224.109375 183.113281 211.234375 187.457031 198.113281 Z M 187.457031 198.113281 " fill-opacity="1" fill-rule="evenodd"/></g><g clip-path="url(#49467e68b8)"><path fill="#805cf4" d="M 189.769531 128.765625 C 194.769531 158.9375 195.75 186.785156 190.761719 206.148438 C 189.859375 209.644531 188.765625 212.871094 187.457031 215.785156 L 198.628906 223.785156 L 215.203125 235.640625 L 229.667969 246 C 226.476562 239.894531 223.753906 234.152344 221.53125 228.847656 C 215.460938 214.394531 212.789062 202.730469 213.691406 196.703125 L 213.726562 196.523438 C 215.753906 186.742188 239.191406 171.699219 255.507812 165.707031 L 203.59375 165.335938 L 203.988281 166.769531 L 190.964844 126.625 L 187.457031 115.800781 C 188.304688 120.054688 189.082031 124.582031 189.769531 128.765625 Z M 189.769531 128.765625 " fill-opacity="1" fill-rule="evenodd"/></g><path fill="#392c97" d="M 155.164062 162.457031 C 162.691406 162.457031 168.828125 156.320312 168.828125 148.792969 C 168.828125 141.269531 162.691406 135.128906 155.164062 135.128906 C 147.640625 135.128906 141.5 141.269531 141.5 148.792969 C 141.5 156.308594 147.640625 162.457031 155.164062 162.457031 Z M 155.164062 162.457031 " fill-opacity="1" fill-rule="evenodd"/><path fill="#805cf4" d="M 219.828125 162.457031 C 227.355469 162.457031 233.492188 156.320312 233.492188 148.792969 C 233.492188 141.269531 227.355469 135.128906 219.828125 135.128906 C 212.304688 135.128906 206.164062 141.269531 206.164062 148.792969 C 206.152344 156.308594 212.304688 162.457031 219.828125 162.457031 Z M 219.828125 162.457031 " fill-opacity="1" fill-rule="evenodd"/><path fill="#805cf4" d="M 174.707031 100.761719 L 176.523438 106.6875 L 182.449219 108.503906 L 176.523438 110.320312 L 174.707031 116.242188 L 172.890625 110.320312 L 166.96875 108.503906 L 172.890625 106.6875 Z M 174.707031 100.761719 " fill-opacity="1" fill-rule="evenodd"/><g clip-path="url(#b7fadf1e5c)"><path fill="#805cf4" d="M 187.015625 74.4375 L 188.84375 80.363281 L 194.769531 82.179688 L 188.84375 83.996094 L 187.015625 89.917969 L 185.199219 83.996094 L 179.277344 82.179688 L 185.199219 80.363281 Z M 187.015625 74.4375 " fill-opacity="1" fill-rule="evenodd"/></g><path fill="#805cf4" d="M 201.808594 96.046875 L 203.625 101.96875 L 209.550781 103.796875 L 203.625 105.613281 L 201.808594 111.539062 L 199.992188 105.613281 L 194.070312 103.796875 L 199.992188 101.96875 Z M 201.808594 96.046875 " fill-opacity="1" fill-rule="evenodd"/><g fill="#392c97" fill-opacity="1"><g transform="translate(77.408, 281.019676)"><g><path d="M 23.84375 -28.421875 C 23.84375 -26.191406 22.546875 -25.078125 19.953125 -25.078125 C 18.734375 -25.109375 17.4375 -25.125 16.0625 -25.125 C 14.6875 -25.125 13.328125 -25.140625 11.984375 -25.171875 L 11.984375 -18.171875 C 13.054688 -18.203125 14.109375 -18.21875 15.140625 -18.21875 C 16.179688 -18.21875 17.207031 -18.234375 18.21875 -18.265625 C 20.8125 -18.265625 22.109375 -17.238281 22.109375 -15.1875 C 22.109375 -13.113281 20.8125 -12.078125 18.21875 -12.078125 C 17.207031 -12.109375 16.179688 -12.125 15.140625 -12.125 C 14.109375 -12.125 13.054688 -12.140625 11.984375 -12.171875 C 11.984375 -10.796875 11.984375 -9.421875 11.984375 -8.046875 C 11.984375 -6.679688 11.984375 -5.296875 11.984375 -3.890625 C 12.015625 -2.640625 11.691406 -1.675781 11.015625 -1 C 10.347656 -0.332031 9.390625 0 8.140625 0 L 7.328125 0 C 6.078125 0 5.113281 -0.332031 4.4375 -1 C 3.769531 -1.675781 3.453125 -2.640625 3.484375 -3.890625 C 3.484375 -5.898438 3.488281 -7.90625 3.5 -9.90625 C 3.519531 -11.90625 3.53125 -13.894531 3.53125 -15.875 C 3.53125 -17.863281 3.519531 -19.851562 3.5 -21.84375 C 3.488281 -23.84375 3.484375 -25.835938 3.484375 -27.828125 C 3.453125 -29.078125 3.769531 -30.035156 4.4375 -30.703125 C 5.113281 -31.378906 6.078125 -31.71875 7.328125 -31.71875 L 19.953125 -31.71875 C 22.546875 -31.71875 23.84375 -30.617188 23.84375 -28.421875 Z M 23.84375 -28.421875 "/></g></g></g><g fill="#392c97" fill-opacity="1"><g transform="translate(103.128738, 281.019676)"><g><path d="M 15.75 0.453125 C 6.769531 0.453125 2.28125 -4.988281 2.28125 -15.875 C 2.28125 -26.738281 6.769531 -32.171875 15.75 -32.171875 C 24.6875 -32.171875 29.15625 -26.738281 29.15625 -15.875 C 29.15625 -4.988281 24.6875 0.453125 15.75 0.453125 Z M 15.75 -5.71875 C 16.96875 -5.71875 17.910156 -6.019531 18.578125 -6.625 C 19.253906 -7.238281 19.726562 -8.285156 20 -9.765625 C 20.269531 -11.242188 20.40625 -13.28125 20.40625 -15.875 C 20.40625 -18.46875 20.269531 -20.5 20 -21.96875 C 19.726562 -23.4375 19.253906 -24.472656 18.578125 -25.078125 C 17.910156 -25.691406 16.96875 -26 15.75 -26 C 14.550781 -26 13.609375 -25.691406 12.921875 -25.078125 C 12.242188 -24.472656 11.757812 -23.4375 11.46875 -21.96875 C 11.175781 -20.5 11.03125 -18.46875 11.03125 -15.875 C 11.03125 -13.28125 11.175781 -11.242188 11.46875 -9.765625 C 11.757812 -8.285156 12.242188 -7.238281 12.921875 -6.625 C 13.609375 -6.019531 14.550781 -5.71875 15.75 -5.71875 Z M 15.75 -5.71875 "/></g></g></g><g fill="#392c97" fill-opacity="1"><g transform="translate(134.616058, 281.019676)"><g><path d="M 15.75 0.453125 C 6.769531 0.453125 2.28125 -4.988281 2.28125 -15.875 C 2.28125 -26.738281 6.769531 -32.171875 15.75 -32.171875 C 24.6875 -32.171875 29.15625 -26.738281 29.15625 -15.875 C 29.15625 -4.988281 24.6875 0.453125 15.75 0.453125 Z M 15.75 -5.71875 C 16.96875 -5.71875 17.910156 -6.019531 18.578125 -6.625 C 19.253906 -7.238281 19.726562 -8.285156 20 -9.765625 C 20.269531 -11.242188 20.40625 -13.28125 20.40625 -15.875 C 20.40625 -18.46875 20.269531 -20.5 20 -21.96875 C 19.726562 -23.4375 19.253906 -24.472656 18.578125 -25.078125 C 17.910156 -25.691406 16.96875 -26 15.75 -26 C 14.550781 -26 13.609375 -25.691406 12.921875 -25.078125 C 12.242188 -24.472656 11.757812 -23.4375 11.46875 -21.96875 C 11.175781 -20.5 11.03125 -18.46875 11.03125 -15.875 C 11.03125 -13.28125 11.175781 -11.242188 11.46875 -9.765625 C 11.757812 -8.285156 12.242188 -7.238281 12.921875 -6.625 C 13.609375 -6.019531 14.550781 -5.71875 15.75 -5.71875 Z M 15.75 -5.71875 "/></g></g></g><g fill="#392c97" fill-opacity="1"><g transform="translate(166.103378, 281.019676)"><g><path d="M 25.671875 -28.65625 C 25.671875 -27.675781 25.332031 -26.910156 24.65625 -26.359375 C 23.988281 -25.804688 23.015625 -25.53125 21.734375 -25.53125 C 21.003906 -25.5625 20.300781 -25.578125 19.625 -25.578125 C 18.957031 -25.578125 18.273438 -25.578125 17.578125 -25.578125 L 17.578125 -15.875 C 17.578125 -13.863281 17.578125 -11.863281 17.578125 -9.875 C 17.578125 -7.894531 17.578125 -5.898438 17.578125 -3.890625 C 17.609375 -2.640625 17.285156 -1.675781 16.609375 -1 C 15.941406 -0.332031 14.984375 0 13.734375 0 L 12.90625 0 C 10.3125 0 9.015625 -1.296875 9.015625 -3.890625 C 9.046875 -5.867188 9.066406 -7.859375 9.078125 -9.859375 C 9.097656 -11.859375 9.109375 -13.863281 9.109375 -15.875 C 9.109375 -17.5 9.097656 -19.125 9.078125 -20.75 C 9.066406 -22.382812 9.0625 -23.992188 9.0625 -25.578125 C 8.414062 -25.578125 7.765625 -25.578125 7.109375 -25.578125 C 6.453125 -25.578125 5.773438 -25.5625 5.078125 -25.53125 C 3.796875 -25.53125 2.816406 -25.804688 2.140625 -26.359375 C 1.472656 -26.910156 1.140625 -27.675781 1.140625 -28.65625 C 1.140625 -30.695312 2.4375 -31.71875 5.03125 -31.71875 L 21.78125 -31.71875 C 24.375 -31.71875 25.671875 -30.695312 25.671875 -28.65625 Z M 25.671875 -28.65625 "/></g></g></g><g fill="#392c97" fill-opacity="1"><g transform="translate(192.922514, 281.019676)"><g><path d="M 7.328125 0 C 4.734375 0 3.4375 -1.296875 3.4375 -3.890625 C 3.46875 -5.960938 3.488281 -8.90625 3.5 -12.71875 C 3.519531 -16.53125 3.53125 -21.519531 3.53125 -27.6875 C 3.53125 -30.375 4.820312 -31.71875 7.40625 -31.71875 L 15.65625 -31.71875 C 18.550781 -31.71875 20.851562 -31.429688 22.5625 -30.859375 C 24.269531 -30.296875 25.488281 -29.476562 26.21875 -28.40625 C 26.957031 -27.34375 27.328125 -26.050781 27.328125 -24.53125 C 27.328125 -22.488281 26.828125 -20.78125 25.828125 -19.40625 C 24.835938 -18.03125 23.535156 -17.082031 21.921875 -16.5625 L 21.921875 -16.390625 C 24.085938 -16.171875 25.671875 -15.4375 26.671875 -14.1875 C 27.679688 -12.9375 28.1875 -11.378906 28.1875 -9.515625 C 28.1875 -7.742188 27.75 -6.140625 26.875 -4.703125 C 26.007812 -3.273438 24.722656 -2.132812 23.015625 -1.28125 C 21.304688 -0.425781 19.15625 0 16.5625 0 Z M 11.578125 -18.953125 L 13 -18.953125 C 15.34375 -18.953125 16.960938 -19.363281 17.859375 -20.1875 C 18.765625 -21.007812 19.21875 -21.984375 19.21875 -23.109375 C 19.21875 -24.210938 18.796875 -25.003906 17.953125 -25.484375 C 17.117188 -25.972656 15.878906 -26.21875 14.234375 -26.21875 L 11.625 -26.21875 C 11.59375 -25.28125 11.578125 -24.242188 11.578125 -23.109375 C 11.578125 -21.984375 11.578125 -20.597656 11.578125 -18.953125 Z M 11.625 -5.453125 L 14.234375 -5.453125 C 16.148438 -5.453125 17.632812 -5.867188 18.6875 -6.703125 C 19.75 -7.546875 20.28125 -8.726562 20.28125 -10.25 C 20.28125 -11.59375 19.835938 -12.664062 18.953125 -13.46875 C 18.066406 -14.28125 16.722656 -14.6875 14.921875 -14.6875 L 11.578125 -14.6875 L 11.578125 -11.21875 C 11.578125 -10.269531 11.578125 -9.3125 11.578125 -8.34375 C 11.578125 -7.382812 11.59375 -6.421875 11.625 -5.453125 Z M 11.625 -5.453125 "/></g></g></g><g fill="#392c97" fill-opacity="1"><g transform="translate(223.174133, 281.019676)"><g><path d="M 14.59375 -32.171875 C 16.582031 -32.171875 18.320312 -31.703125 19.8125 -30.765625 C 21.3125 -29.835938 22.5625 -28.304688 23.5625 -26.171875 C 24.570312 -24.035156 25.34375 -21.164062 25.875 -17.5625 C 26.414062 -13.96875 26.726562 -9.488281 26.8125 -4.125 C 26.84375 -2.8125 26.519531 -1.796875 25.84375 -1.078125 C 25.175781 -0.359375 24.21875 0 22.96875 0 L 22.28125 0 C 19.6875 0 18.390625 -1.1875 18.390625 -3.5625 C 18.390625 -4.175781 18.390625 -4.769531 18.390625 -5.34375 C 18.390625 -5.925781 18.378906 -6.507812 18.359375 -7.09375 L 10.25 -7.09375 C 10.25 -6.601562 10.238281 -6.09375 10.21875 -5.5625 C 10.207031 -5.03125 10.203125 -4.472656 10.203125 -3.890625 C 10.203125 -1.296875 8.921875 0 6.359375 0 C 5.140625 0 4.191406 -0.332031 3.515625 -1 C 2.847656 -1.675781 2.53125 -2.65625 2.5625 -3.9375 C 2.59375 -5.1875 2.625 -6.375 2.65625 -7.5 C 2.6875 -8.632812 2.734375 -9.71875 2.796875 -10.75 C 3.160156 -16.15625 3.835938 -20.421875 4.828125 -23.546875 C 5.816406 -26.671875 7.128906 -28.890625 8.765625 -30.203125 C 10.398438 -31.515625 12.34375 -32.171875 14.59375 -32.171875 Z M 10.34375 -12.546875 L 18.171875 -12.546875 C 17.984375 -15.960938 17.707031 -18.625 17.34375 -20.53125 C 16.976562 -22.4375 16.515625 -23.773438 15.953125 -24.546875 C 15.390625 -25.328125 14.722656 -25.71875 13.953125 -25.71875 C 13.191406 -25.71875 12.554688 -25.328125 12.046875 -24.546875 C 11.546875 -23.773438 11.164062 -22.4375 10.90625 -20.53125 C 10.65625 -18.625 10.46875 -15.960938 10.34375 -12.546875 Z M 10.34375 -12.546875 "/></g></g></g><g fill="#392c97" fill-opacity="1"><g transform="translate(252.556193, 281.019676)"><g><path d="M 11.984375 -6.6875 C 12.835938 -6.71875 13.691406 -6.738281 14.546875 -6.75 C 15.398438 -6.757812 16.253906 -6.78125 17.109375 -6.8125 C 19.765625 -6.90625 21.09375 -5.8125 21.09375 -3.53125 C 21.09375 -1.175781 19.796875 0 17.203125 0 L 7.328125 0 C 6.078125 0 5.113281 -0.332031 4.4375 -1 C 3.769531 -1.675781 3.453125 -2.640625 3.484375 -3.890625 C 3.484375 -5.898438 3.488281 -7.90625 3.5 -9.90625 C 3.519531 -11.90625 3.53125 -13.894531 3.53125 -15.875 C 3.53125 -17.863281 3.519531 -19.851562 3.5 -21.84375 C 3.488281 -23.84375 3.484375 -25.835938 3.484375 -27.828125 C 3.453125 -29.078125 3.769531 -30.035156 4.4375 -30.703125 C 5.113281 -31.378906 6.078125 -31.71875 7.328125 -31.71875 L 8.140625 -31.71875 C 10.734375 -31.71875 12.03125 -30.421875 12.03125 -27.828125 C 12.03125 -25.835938 12.019531 -23.84375 12 -21.84375 C 11.988281 -19.851562 11.984375 -17.863281 11.984375 -15.875 Z M 11.984375 -6.6875 "/></g></g></g><g fill="#392c97" fill-opacity="1"><g transform="translate(275.073285, 281.019676)"><g><path d="M 11.984375 -6.6875 C 12.835938 -6.71875 13.691406 -6.738281 14.546875 -6.75 C 15.398438 -6.757812 16.253906 -6.78125 17.109375 -6.8125 C 19.765625 -6.90625 21.09375 -5.8125 21.09375 -3.53125 C 21.09375 -1.175781 19.796875 0 17.203125 0 L 7.328125 0 C 6.078125 0 5.113281 -0.332031 4.4375 -1 C 3.769531 -1.675781 3.453125 -2.640625 3.484375 -3.890625 C 3.484375 -5.898438 3.488281 -7.90625 3.5 -9.90625 C 3.519531 -11.90625 3.53125 -13.894531 3.53125 -15.875 C 3.53125 -17.863281 3.519531 -19.851562 3.5 -21.84375 C 3.488281 -23.84375 3.484375 -25.835938 3.484375 -27.828125 C 3.453125 -29.078125 3.769531 -30.035156 4.4375 -30.703125 C 5.113281 -31.378906 6.078125 -31.71875 7.328125 -31.71875 L 8.140625 -31.71875 C 10.734375 -31.71875 12.03125 -30.421875 12.03125 -27.828125 C 12.03125 -25.835938 12.019531 -23.84375 12 -21.84375 C 11.988281 -19.851562 11.984375 -17.863281 11.984375 -15.875 Z M 11.984375 -6.6875 "/></g></g></g><g fill="#392c97" fill-opacity="1"><g transform="translate(133.43219, 297.705609)"><g><path d="M 5.15625 0.140625 C 4.289062 0.140625 3.523438 -0.0390625 2.859375 -0.40625 C 2.191406 -0.769531 1.671875 -1.3125 1.296875 -2.03125 C 0.929688 -2.757812 0.75 -3.65625 0.75 -4.71875 C 0.75 -5.78125 0.929688 -6.671875 1.296875 -7.390625 C 1.671875 -8.117188 2.191406 -8.664062 2.859375 -9.03125 C 3.523438 -9.394531 4.289062 -9.578125 5.15625 -9.578125 C 6.0625 -9.578125 6.832031 -9.394531 7.46875 -9.03125 C 8.101562 -8.675781 8.554688 -8.140625 8.828125 -7.421875 L 7.46875 -6.578125 L 7.3125 -6.59375 C 7.101562 -7.082031 6.828125 -7.429688 6.484375 -7.640625 C 6.140625 -7.859375 5.695312 -7.96875 5.15625 -7.96875 C 4.375 -7.96875 3.765625 -7.707031 3.328125 -7.1875 C 2.890625 -6.664062 2.671875 -5.84375 2.671875 -4.71875 C 2.671875 -3.59375 2.890625 -2.769531 3.328125 -2.25 C 3.765625 -1.738281 4.375 -1.484375 5.15625 -1.484375 C 6.382812 -1.484375 7.132812 -2.078125 7.40625 -3.265625 L 7.578125 -3.265625 L 8.953125 -2.546875 C 8.691406 -1.648438 8.25 -0.976562 7.625 -0.53125 C 7 -0.0820312 6.175781 0.140625 5.15625 0.140625 Z M 5.15625 0.140625 "/></g></g></g><g fill="#392c97" fill-opacity="1"><g transform="translate(145.595378, 297.705609)"><g><path d="M 5.140625 0.140625 C 4.273438 0.140625 3.507812 -0.0351562 2.84375 -0.390625 C 2.1875 -0.742188 1.671875 -1.28125 1.296875 -2 C 0.929688 -2.726562 0.75 -3.632812 0.75 -4.71875 C 0.75 -5.800781 0.929688 -6.703125 1.296875 -7.421875 C 1.671875 -8.148438 2.1875 -8.691406 2.84375 -9.046875 C 3.507812 -9.398438 4.273438 -9.578125 5.140625 -9.578125 C 6.003906 -9.578125 6.765625 -9.398438 7.421875 -9.046875 C 8.085938 -8.691406 8.601562 -8.148438 8.96875 -7.421875 C 9.34375 -6.703125 9.53125 -5.800781 9.53125 -4.71875 C 9.53125 -3.632812 9.34375 -2.726562 8.96875 -2 C 8.601562 -1.28125 8.085938 -0.742188 7.421875 -0.390625 C 6.765625 -0.0351562 6.003906 0.140625 5.140625 0.140625 Z M 5.140625 -1.484375 C 5.941406 -1.484375 6.550781 -1.738281 6.96875 -2.25 C 7.394531 -2.769531 7.609375 -3.59375 7.609375 -4.71875 C 7.609375 -5.84375 7.394531 -6.660156 6.96875 -7.171875 C 6.550781 -7.691406 5.941406 -7.953125 5.140625 -7.953125 C 4.335938 -7.953125 3.722656 -7.691406 3.296875 -7.171875 C 2.878906 -6.660156 2.671875 -5.84375 2.671875 -4.71875 C 2.671875 -3.59375 2.878906 -2.769531 3.296875 -2.25 C 3.722656 -1.738281 4.335938 -1.484375 5.140625 -1.484375 Z M 5.140625 -1.484375 "/></g></g></g><g fill="#392c97" fill-opacity="1"><g transform="translate(158.78475, 297.705609)"><g><path d="M 2.9375 0 L 1.21875 0 L 1.21875 -9.4375 L 3.671875 -9.4375 L 6.046875 -2.5 L 6.1875 -2.5 L 8.5625 -9.4375 L 10.953125 -9.4375 L 10.953125 0 L 9.171875 0 L 9.171875 -6.234375 L 9.015625 -6.265625 L 6.828125 0 L 5.28125 0 L 3.09375 -6.265625 L 2.9375 -6.234375 Z M 2.9375 0 "/></g></g></g><g fill="#392c97" fill-opacity="1"><g transform="translate(173.871592, 297.705609)"><g><path d="M 2.9375 0 L 1.21875 0 L 1.21875 -9.4375 L 3.671875 -9.4375 L 6.046875 -2.5 L 6.1875 -2.5 L 8.5625 -9.4375 L 10.953125 -9.4375 L 10.953125 0 L 9.171875 0 L 9.171875 -6.234375 L 9.015625 -6.265625 L 6.828125 0 L 5.28125 0 L 3.09375 -6.265625 L 2.9375 -6.234375 Z M 2.9375 0 "/></g></g></g><g fill="#392c97" fill-opacity="1"><g transform="translate(188.958432, 297.705609)"><g><path d="M 5 0.140625 C 3.695312 0.140625 2.734375 -0.164062 2.109375 -0.78125 C 1.484375 -1.40625 1.171875 -2.320312 1.171875 -3.53125 L 1.171875 -9.4375 L 3 -9.4375 L 3 -3.546875 C 3 -2.859375 3.160156 -2.34375 3.484375 -2 C 3.816406 -1.65625 4.320312 -1.484375 5 -1.484375 C 6.34375 -1.484375 7.015625 -2.171875 7.015625 -3.546875 L 7.015625 -9.4375 L 8.84375 -9.4375 L 8.84375 -3.53125 C 8.84375 -2.320312 8.523438 -1.40625 7.890625 -0.78125 C 7.265625 -0.164062 6.300781 0.140625 5 0.140625 Z M 5 0.140625 "/></g></g></g><g fill="#392c97" fill-opacity="1"><g transform="translate(201.870284, 297.705609)"><g><path d="M 3.03125 0 L 1.21875 0 L 1.21875 -9.4375 L 3.359375 -9.4375 L 7.15625 -3.359375 L 7.3125 -3.375 L 7.3125 -9.4375 L 9.109375 -9.4375 L 9.109375 0 L 7.203125 0 L 3.1875 -6.5 L 3.03125 -6.46875 Z M 3.03125 0 "/></g></g></g><g fill="#392c97" fill-opacity="1"><g transform="translate(215.124199, 297.705609)"><g><path d="M 3.09375 0 L 1.21875 0 L 1.21875 -9.4375 L 3.09375 -9.4375 Z M 3.09375 0 "/></g></g></g><g fill="#392c97" fill-opacity="1"><g transform="translate(222.356548, 297.705609)"><g><path d="M 7.5625 -9.4375 L 7.5625 -7.875 L 4.84375 -7.875 L 4.84375 0 L 2.984375 0 L 2.984375 -7.875 L 0.265625 -7.875 L 0.265625 -9.4375 Z M 7.5625 -9.4375 "/></g></g></g><g fill="#392c97" fill-opacity="1"><g transform="translate(233.086956, 297.705609)"><g><path d="M 5.171875 0 L 3.3125 0 L 3.3125 -3.703125 L 0.046875 -9.4375 L 2.046875 -9.4375 L 4.203125 -5.71875 L 4.359375 -5.71875 L 6.46875 -9.4375 L 8.421875 -9.4375 L 5.171875 -3.703125 Z M 5.171875 0 "/></g></g></g></svg>